M48
;DRILL file {KiCad 4.0.4-stable} date Wed Dec 14 22:22:52 2016
;FORMAT={-:-/ absolute / inch / decimal}
FMAT,2
INCH,TZ
T1C0.016
T2C0.039
T3C0.040
T4C0.059
%
G90
G05
M72
T1
X3.5433Y-6.4961
X3.5433Y-6.8898
X3.5433Y-8.0709
X3.5433Y-8.4646
X3.5433Y-8.8583
X3.5433Y-9.252
X3.5433Y-9.6457
X3.5433Y-10.0394
X3.5433Y-10.4331
X3.937Y-6.4961
X3.937Y-6.8898
X3.937Y-8.4646
X3.937Y-9.252
X3.937Y-9.6457
X3.937Y-10.0394
X4.3307Y-8.0709
X4.3307Y-8.4646
X4.3307Y-9.252
X4.3307Y-10.0394
X4.3307Y-10.4331
X4.7244Y-8.8583
X4.7244Y-9.252
X4.7244Y-9.6457
X5.1181Y-8.0709
X5.1181Y-9.252
X5.5118Y-6.4961
X5.5118Y-8.8583
X5.5118Y-9.252
X5.5118Y-10.0394
X5.9055Y-8.0709
X5.9055Y-9.252
X5.9055Y-9.6457
X5.9055Y-10.0394
X6.0282Y-9.3406
X6.2992Y-6.4961
X6.2992Y-9.252
X6.2992Y-10.0394
X6.2992Y-10.4331
X6.6929Y-8.0709
X6.6929Y-9.252
X6.6929Y-10.4331
X7.0866Y-6.4961
X7.0866Y-6.8898
X7.0866Y-9.252
X7.0866Y-10.0394
X7.0866Y-10.4331
X7.4803Y-6.4961
X7.4803Y-8.0709
X7.4803Y-8.4646
X7.4803Y-8.8583
X7.4803Y-9.252
X7.4803Y-10.0394
X7.4803Y-10.4331
X7.874Y-6.4961
X7.874Y-6.8898
X7.874Y-7.6772
X7.874Y-9.252
X7.874Y-10.0394
X7.874Y-10.4331
X8.2677Y-8.0709
X8.2677Y-8.4646
X8.2677Y-10.0394
X8.2677Y-10.4331
X8.6614Y-6.4961
X8.6614Y-6.8898
X8.6614Y-7.6772
X8.6614Y-9.252
X8.6614Y-10.0394
X9.0551Y-8.0709
X9.0551Y-8.4646
X9.0551Y-9.252
X9.0551Y-10.0394
X9.0551Y-10.4331
X9.2559Y-7.8661
X9.4488Y-6.4961
X9.4488Y-7.2835
X9.4488Y-7.6772
X9.4488Y-9.252
X9.4488Y-10.0394
X9.4488Y-10.4331
X9.8425Y-8.8583
X9.8425Y-9.252
X9.8425Y-10.0394
X9.8425Y-10.4331
X10.2362Y-6.4961
X10.2362Y-9.252
X10.2362Y-9.6457
X10.2362Y-10.0394
X10.2362Y-10.4331
X10.6299Y-8.8583
X10.6299Y-9.252
X10.6299Y-10.0394
X10.6299Y-10.4331
X11.0236Y-9.252
X11.0236Y-10.4331
X11.4173Y-8.8583
X11.4173Y-9.252
X11.4173Y-10.0394
X11.6457Y-7.0413
X11.811Y-9.252
X11.811Y-9.6457
X11.811Y-10.4331
X11.8543Y-10.0787
X12.2047Y-8.8583
X12.2047Y-9.252
X12.2047Y-10.0394
X12.5984Y-9.252
X12.5984Y-10.0394
X12.5984Y-10.4331
X12.9921Y-8.8583
X12.9921Y-9.252
X12.9921Y-9.6457
X12.9921Y-10.0394
X13.3858Y-7.2835
X13.3858Y-8.0709
X13.3858Y-9.252
X13.3858Y-10.0394
X13.7795Y-8.4646
X13.7795Y-8.8583
X13.7795Y-9.252
X13.7795Y-10.0394
X13.7795Y-10.4331
X13.97Y-6.47
X14.1732Y-6.4961
X14.1732Y-6.8898
X14.1732Y-8.8583
X14.1732Y-9.252
X14.1732Y-9.6457
X14.1732Y-10.0394
X14.5669Y-6.4961
X14.5669Y-6.8898
X14.5669Y-7.6772
X14.5669Y-8.4646
X14.5669Y-8.8583
X14.5669Y-9.252
X14.5669Y-9.6457
X14.5669Y-10.0394
X14.5669Y-10.4331
X14.9606Y-6.4961
X14.9606Y-6.8898
X14.9606Y-7.6772
X14.9606Y-8.0709
X14.9606Y-8.4646
X14.9606Y-9.6457
X14.9606Y-10.0394
X14.9606Y-10.4331
X15.3543Y-9.6457
X15.3543Y-10.0394
X15.6732Y-7.0157
X15.7106Y-7.0157
X15.748Y-6.4961
X15.748Y-6.8898
X15.748Y-7.2835
X15.748Y-7.6772
X15.748Y-8.0709
X15.748Y-9.6457
X15.748Y-10.0394
X15.748Y-10.4331
X16.5354Y-6.4961
X16.5354Y-6.8898
X16.5354Y-7.2835
X16.5354Y-7.6772
X16.5354Y-8.0709
X16.5354Y-9.6457
X16.5354Y-10.0394
X16.5354Y-10.4331
X16.9291Y-9.6457
X16.9291Y-10.0394
X17.3228Y-7.2835
X17.3228Y-8.0709
X17.3228Y-8.4646
X17.3228Y-9.6457
X17.3228Y-10.0394
X17.3228Y-10.4331
X17.6201Y-6.7008
X17.7165Y-9.252
X17.7165Y-9.6457
X17.7165Y-10.0394
X17.7165Y-10.4331
X17.7362Y-6.6732
X17.7717Y-6.9173
X17.8071Y-6.7047
X17.8071Y-6.7953
X17.8071Y-6.9843
X17.8543Y-7.0197
X17.8898Y-6.7953
X18.1102Y-9.252
X18.1102Y-9.6457
X18.1102Y-10.0394
X18.1299Y-6.5354
X18.1299Y-6.7283
X18.1654Y-6.4803
X18.1929Y-6.4488
X18.2008Y-6.6457
X18.2205Y-6.4173
X18.2362Y-6.9843
X18.2402Y-6.6457
X18.2559Y-6.8268
X18.2913Y-6.6181
X18.2953Y-6.6614
X18.2992Y-6.4488
X18.2992Y-6.4803
X18.3465Y-7.0984
X18.4449Y-6.5512
X18.4449Y-9.2303
X18.5039Y-9.252
X18.5039Y-10.0394
X18.5059Y-7.1457
X18.6299Y-7.9646
X18.6299Y-9.3051
X18.6791Y-8.7421
X18.6811Y-7.0157
X18.7126Y-6.7323
X18.7402Y-6.5472
X18.7795Y-6.5472
X18.7795Y-6.6181
X18.7795Y-7.0551
X18.811Y-6.4449
X18.8327Y-7.8661
X18.8346Y-6.685
X18.8524Y-7.0157
X18.8898Y-7.0157
X18.8976Y-10.4331
X18.9173Y-6.7638
X18.9272Y-7.0157
X18.9626Y-7.0157
X18.998Y-7.0157
X19.0177Y-7.561
X19.0315Y-9.9626
X19.0354Y-7.0157
X19.0433Y-7.5276
X19.0669Y-6.7913
X19.0728Y-7.6181
X19.1654Y-6.5394
X19.1654Y-8.7126
X19.2913Y-6.8898
X19.2913Y-9.252
X19.2913Y-10.0394
X19.5827Y-6.5394
X19.6181Y-6.7638
X19.6772Y-7.0197
X19.685Y-6.8898
X19.7913Y-10.2087
X19.8937Y-6.5394
X19.9252Y-9.7697
X20.0787Y-6.4961
X20.0787Y-6.8898
X20.0787Y-8.0709
X20.0787Y-8.8583
X20.0787Y-9.252
X20.0787Y-9.6457
X20.0787Y-10.4331
X20.3228Y-6.7638
X20.3406Y-9.4626
X20.4272Y-8.1929
X20.4291Y-6.9921
X20.4724Y-6.4961
X20.4724Y-6.8898
X20.4724Y-7.2835
X20.4724Y-8.4646
X20.4724Y-8.8583
X20.4724Y-9.252
X20.4724Y-10.0394
T2
X3.5711Y-7.6182
X3.6646Y-10.6103
X3.7581Y-8.3662
X3.8522Y-9.1143
X3.9711Y-7.6182
X4.0392Y-9.8623
X4.0646Y-10.6103
X4.1581Y-8.3662
X4.2522Y-9.1143
X4.3191Y-6.8702
X4.3191Y-7.6182
X4.4392Y-9.8623
X4.5996Y-10.6103
X4.6931Y-8.3662
X4.7191Y-6.8702
X4.7191Y-7.6182
X4.8802Y-9.1143
X4.9996Y-10.6103
X5.0672Y-6.8702
X5.0672Y-7.6182
X5.0931Y-8.3662
X5.2542Y-9.8623
X5.2802Y-9.1143
X5.4412Y-8.3662
X5.4672Y-6.8702
X5.4672Y-7.6182
X5.5347Y-10.6103
X5.6282Y-9.1143
X5.6542Y-9.8623
X5.8152Y-6.8702
X5.8152Y-7.6182
X5.8412Y-8.3662
X5.9347Y-10.6103
X6.0022Y-9.8623
X6.0282Y-9.1143
X6.1892Y-8.3662
X6.2152Y-6.8702
X6.2152Y-7.6182
X6.3762Y-9.1143
X6.4022Y-9.8623
X6.5632Y-6.8702
X6.5632Y-7.6182
X6.5892Y-8.3662
X6.7502Y-9.8623
X6.7762Y-9.1143
X6.9372Y-8.3662
X6.9632Y-6.8702
X6.9632Y-7.6182
X7.1243Y-9.1143
X7.1502Y-9.8623
X7.3113Y-6.8702
X7.3113Y-7.6182
X7.3372Y-8.3662
X7.4983Y-9.8623
X7.5243Y-9.1143
X7.6853Y-8.3662
X7.7113Y-6.8702
X7.7113Y-7.6182
X7.8723Y-9.1143
X7.8983Y-9.8623
X8.0593Y-6.8702
X8.0593Y-7.6182
X8.0853Y-8.3662
X8.2463Y-9.8623
X8.2723Y-9.1143
X8.3398Y-10.6103
X8.4333Y-8.3662
X8.4593Y-6.8702
X8.4593Y-7.6182
X8.6203Y-9.1143
X8.6463Y-9.8623
X8.7398Y-10.6103
X8.8073Y-6.8702
X8.8073Y-7.6182
X8.8333Y-8.3662
X8.9943Y-9.8623
X9.0203Y-9.1143
X9.1813Y-8.3662
X9.2073Y-6.8702
X9.2073Y-7.6182
X9.3683Y-9.1143
X9.3943Y-9.8623
X9.5554Y-6.8702
X9.5554Y-7.6182
X9.5813Y-8.3662
X9.7424Y-9.8623
X9.7683Y-9.1143
X9.9294Y-8.3662
X9.9554Y-6.8702
X9.9554Y-7.6182
X10.1164Y-9.1143
X10.1424Y-9.8623
X10.3034Y-6.8702
X10.3034Y-7.6182
X10.3294Y-8.3662
X10.4904Y-9.8623
X10.5164Y-9.1143
X10.6774Y-8.3662
X10.7034Y-6.8702
X10.7034Y-7.6182
X10.8644Y-9.1143
X10.8904Y-9.8623
X11.0514Y-6.8702
X11.0514Y-7.6182
X11.0774Y-8.3662
X11.1449Y-10.6103
X11.2384Y-9.8623
X11.2644Y-9.1143
X11.4254Y-8.3662
X11.4514Y-6.8702
X11.4514Y-7.6182
X11.5449Y-10.6103
X11.6124Y-9.1143
X11.6384Y-9.8623
X11.7994Y-6.8702
X11.7994Y-7.6182
X11.8254Y-8.3662
X11.9865Y-9.8623
X12.0124Y-9.1143
X12.08Y-10.6103
X12.1735Y-8.3662
X12.1994Y-6.8702
X12.1994Y-7.6182
X12.3605Y-9.1143
X12.3865Y-9.8623
X12.48Y-10.6103
X12.5475Y-6.8702
X12.5475Y-7.6182
X12.5735Y-8.3662
X12.7605Y-9.1143
X12.9215Y-8.3662
X12.9475Y-6.8702
X12.9475Y-7.6182
X13.015Y-10.6103
X13.1085Y-9.1143
X13.2955Y-6.8702
X13.3215Y-8.3662
X13.389Y-9.8623
X13.415Y-10.6103
X13.5085Y-9.1143
X13.6695Y-7.6182
X13.6955Y-6.8702
X13.789Y-9.8623
X13.95Y-10.6103
X14.0695Y-7.6182
X14.35Y-8.34
X14.35Y-8.74
X14.35Y-10.6103
X15.1656Y-6.8702
X15.1656Y-7.6182
X15.1656Y-8.3662
X15.1656Y-10.6103
X15.5656Y-6.8702
X15.5656Y-7.6182
X15.5656Y-8.3662
X15.5656Y-10.6103
X15.9136Y-6.8702
X15.9136Y-7.6182
X15.9136Y-8.3662
X15.9136Y-9.8623
X15.9136Y-10.6103
X16.3136Y-6.8702
X16.3136Y-7.6182
X16.3136Y-8.3662
X16.3136Y-9.8623
X16.3136Y-10.6103
X16.6617Y-6.8702
X16.6617Y-7.6182
X16.6617Y-8.3662
X16.6617Y-10.6103
X17.0617Y-6.8702
X17.0617Y-7.6182
X17.0617Y-8.3662
X17.0617Y-10.6103
X17.7837Y-7.6182
X17.7837Y-8.3662
X17.7837Y-9.1143
X17.7837Y-9.8623
X18.1577Y-10.2103
X18.1837Y-7.6182
X18.1837Y-8.3662
X18.1837Y-9.1143
X18.1837Y-9.8623
X18.5317Y-7.6182
X18.5317Y-8.3662
X18.5317Y-9.1143
X18.5317Y-9.8623
X18.5577Y-10.2103
X18.9317Y-7.6182
X18.9317Y-8.3662
X18.9317Y-9.1143
X18.9317Y-9.8623
X19.2798Y-7.6182
X19.2798Y-8.3662
X19.2798Y-9.1143
X19.2798Y-9.8623
X19.2798Y-10.6103
X19.6798Y-7.6182
X19.6798Y-8.3662
X19.6798Y-9.1143
X19.6798Y-9.8623
X19.6798Y-10.6103
X20.0278Y-7.6182
X20.0278Y-8.34
X20.0278Y-8.74
X20.0278Y-9.8363
X20.0278Y-10.2363
X20.4278Y-7.6182
T3
X17.7465Y-6.3819
X17.7465Y-6.4819
X17.7465Y-6.5819
X17.8465Y-6.3819
X17.8465Y-6.4819
X17.8465Y-6.5819
T4
X3.6211Y-7.3182
X3.7146Y-10.3103
X3.8081Y-8.0662
X3.8711Y-7.2182
X3.9022Y-8.8143
X3.9646Y-10.2103
X4.0581Y-7.9662
X4.0892Y-9.5623
X4.1522Y-8.7143
X4.3392Y-9.4623
X4.3691Y-6.5702
X4.3691Y-7.3182
X4.6191Y-6.4702
X4.6191Y-7.2182
X4.6496Y-10.3103
X4.7431Y-8.0662
X4.8996Y-10.2103
X4.9302Y-8.8143
X4.9931Y-7.9662
X5.1172Y-6.5702
X5.1172Y-7.3182
X5.1802Y-8.7143
X5.3042Y-9.5623
X5.3672Y-6.4702
X5.3672Y-7.2182
X5.4912Y-8.0662
X5.5542Y-9.4623
X5.5847Y-10.3103
X5.6782Y-8.8143
X5.7412Y-7.9662
X5.8347Y-10.2103
X5.8652Y-6.5702
X5.8652Y-7.3182
X5.9282Y-8.7143
X6.0522Y-9.5623
X6.1152Y-6.4702
X6.1152Y-7.2182
X6.2392Y-8.0662
X6.3022Y-9.4623
X6.4262Y-8.8143
X6.4892Y-7.9662
X6.6132Y-6.5702
X6.6132Y-7.3182
X6.6762Y-8.7143
X6.8002Y-9.5623
X6.8632Y-6.4702
X6.8632Y-7.2182
X6.9872Y-8.0662
X7.0502Y-9.4623
X7.1743Y-8.8143
X7.2372Y-7.9662
X7.3613Y-6.5702
X7.3613Y-7.3182
X7.4243Y-8.7143
X7.5483Y-9.5623
X7.6113Y-6.4702
X7.6113Y-7.2182
X7.7353Y-8.0662
X7.7983Y-9.4623
X7.9223Y-8.8143
X7.9853Y-7.9662
X8.1093Y-6.5702
X8.1093Y-7.3182
X8.1723Y-8.7143
X8.2963Y-9.5623
X8.3593Y-6.4702
X8.3593Y-7.2182
X8.3898Y-10.3103
X8.4833Y-8.0662
X8.5463Y-9.4623
X8.6398Y-10.2103
X8.6703Y-8.8143
X8.7333Y-7.9662
X8.8573Y-6.5702
X8.8573Y-7.3182
X8.9203Y-8.7143
X9.0443Y-9.5623
X9.1073Y-6.4702
X9.1073Y-7.2182
X9.2313Y-8.0662
X9.2943Y-9.4623
X9.4183Y-8.8143
X9.4813Y-7.9662
X9.6054Y-6.5702
X9.6054Y-7.3182
X9.6683Y-8.7143
X9.7924Y-9.5623
X9.8554Y-6.4702
X9.8554Y-7.2182
X9.9794Y-8.0662
X10.0424Y-9.4623
X10.1664Y-8.8143
X10.2294Y-7.9662
X10.3534Y-6.5702
X10.3534Y-7.3182
X10.4164Y-8.7143
X10.5404Y-9.5623
X10.6034Y-6.4702
X10.6034Y-7.2182
X10.7274Y-8.0662
X10.7904Y-9.4623
X10.9144Y-8.8143
X10.9774Y-7.9662
X11.1014Y-6.5702
X11.1014Y-7.3182
X11.1644Y-8.7143
X11.1949Y-10.3103
X11.2884Y-9.5623
X11.3514Y-6.4702
X11.3514Y-7.2182
X11.4449Y-10.2103
X11.4754Y-8.0662
X11.5384Y-9.4623
X11.6624Y-8.8143
X11.7254Y-7.9662
X11.8494Y-6.5702
X11.8494Y-7.3182
X11.9124Y-8.7143
X12.0365Y-9.5623
X12.0994Y-6.4702
X12.0994Y-7.2182
X12.13Y-10.3103
X12.2235Y-8.0662
X12.2865Y-9.4623
X12.38Y-10.2103
X12.4105Y-8.8143
X12.4735Y-7.9662
X12.5975Y-6.5702
X12.5975Y-7.3182
X12.6605Y-8.7143
X12.8475Y-6.4702
X12.8475Y-7.2182
X12.9715Y-8.0662
X13.065Y-10.3103
X13.1585Y-8.8143
X13.2215Y-7.9662
X13.315Y-10.2103
X13.3455Y-6.5702
X13.4085Y-8.7143
X13.439Y-9.5623
X13.5955Y-6.4702
X13.689Y-9.4623
X13.7195Y-7.3182
X13.9508Y-8.441
X13.9695Y-7.2182
X14.Y-10.3103
X14.0508Y-8.691
X14.25Y-10.2103
X15.2156Y-6.5702
X15.2156Y-7.3182
X15.2156Y-8.0662
X15.2156Y-10.3103
X15.4656Y-6.4702
X15.4656Y-7.2182
X15.4656Y-7.9662
X15.4656Y-10.2103
X15.9636Y-6.5702
X15.9636Y-7.3182
X15.9636Y-8.0662
X15.9636Y-9.5623
X15.9636Y-10.3103
X16.2136Y-6.4702
X16.2136Y-7.2182
X16.2136Y-7.9662
X16.2136Y-9.4623
X16.2136Y-10.2103
X16.7117Y-6.5702
X16.7117Y-7.3182
X16.7117Y-8.0662
X16.7117Y-10.3103
X16.9617Y-6.4702
X16.9617Y-7.2182
X16.9617Y-7.9662
X16.9617Y-10.2103
X17.8337Y-7.3182
X17.8337Y-8.0662
X17.8337Y-8.8143
X17.8337Y-9.5623
X18.0837Y-7.2182
X18.0837Y-7.9662
X18.0837Y-8.7143
X18.0837Y-9.4623
X18.2577Y-10.6103
X18.5077Y-10.5103
X18.5817Y-7.3182
X18.5817Y-8.0662
X18.5817Y-8.8143
X18.5817Y-9.5623
X18.8317Y-7.2182
X18.8317Y-7.9662
X18.8317Y-8.7143
X18.8317Y-9.4623
X19.3298Y-7.3182
X19.3298Y-8.0662
X19.3298Y-8.8143
X19.3298Y-9.5623
X19.3298Y-10.3103
X19.5798Y-7.2182
X19.5798Y-7.9662
X19.5798Y-8.7143
X19.5798Y-9.4623
X19.5798Y-10.2103
X20.0778Y-7.3182
X20.3278Y-7.2182
X20.3278Y-8.3902
X20.3278Y-9.8863
X20.4278Y-8.6402
X20.4278Y-10.1363
T0
M30
