G04 #@! TF.FileFunction,Soldermask,Bot*
%FSLAX46Y46*%
G04 Gerber Fmt 4.6, Leading zero omitted, Abs format (unit mm)*
G04 Created by KiCad (PCBNEW 4.0.4-stable) date Wed Dec 14 22:22:49 2016*
%MOMM*%
%LPD*%
G01*
G04 APERTURE LIST*
%ADD10C,0.100000*%
%ADD11O,2.300000X0.950000*%
%ADD12O,1.400000X0.700000*%
%ADD13O,0.700000X1.400000*%
%ADD14O,0.950000X2.300000*%
%ADD15R,5.600000X5.600000*%
%ADD16C,2.686000*%
%ADD17C,2.051000*%
%ADD18R,2.051000X2.051000*%
%ADD19R,2.000000X1.200000*%
%ADD20R,1.200000X2.000000*%
%ADD21R,1.900000X1.650000*%
%ADD22R,1.600000X1.150000*%
%ADD23R,1.150000X1.600000*%
%ADD24R,1.400000X1.400000*%
%ADD25R,0.900380X2.701240*%
%ADD26R,2.398980X2.899360*%
%ADD27C,1.299160*%
%ADD28R,2.127200X2.127200*%
%ADD29O,2.127200X2.127200*%
%ADD30R,1.600000X1.300000*%
%ADD31R,1.300000X1.600000*%
%ADD32R,2.400000X2.800000*%
%ADD33R,0.990000X0.850000*%
%ADD34R,2.400000X2.100000*%
%ADD35R,1.950000X1.700000*%
%ADD36C,2.380000*%
%ADD37R,1.900000X1.700000*%
G04 APERTURE END LIST*
D10*
D11*
X464700000Y-178200000D03*
X464700000Y-176600000D03*
X464700000Y-175800000D03*
X464700000Y-175000000D03*
X464700000Y-174200000D03*
D12*
X467400000Y-171700000D03*
X467400000Y-172200000D03*
X467400000Y-172700000D03*
X467400000Y-173200000D03*
X467400000Y-173700000D03*
X467400000Y-174200000D03*
X467400000Y-174700000D03*
X467400000Y-176700000D03*
X467400000Y-176200000D03*
X467400000Y-175700000D03*
X467400000Y-175200000D03*
D13*
X468350000Y-170750000D03*
X468850000Y-170750000D03*
X469350000Y-170750000D03*
X469850000Y-170750000D03*
X470350000Y-170750000D03*
X470850000Y-170750000D03*
X471350000Y-170750000D03*
X471850000Y-170750000D03*
X472350000Y-170750000D03*
X472850000Y-170750000D03*
X473350000Y-170750000D03*
D12*
X474300000Y-171700000D03*
X474300000Y-172200000D03*
X474300000Y-172700000D03*
X474300000Y-173200000D03*
X474300000Y-173700000D03*
X474300000Y-174200000D03*
X474300000Y-174700000D03*
X474300000Y-175200000D03*
X474300000Y-175700000D03*
X474300000Y-176200000D03*
X474300000Y-176700000D03*
D13*
X473350000Y-177650000D03*
X472850000Y-177650000D03*
X472350000Y-177650000D03*
X471850000Y-177650000D03*
X471350000Y-177650000D03*
X470850000Y-177650000D03*
X470350000Y-177650000D03*
X469850000Y-177650000D03*
X469350000Y-177650000D03*
X468850000Y-177650000D03*
X468350000Y-177650000D03*
D11*
X464700000Y-177400000D03*
X464700000Y-173400000D03*
X464700000Y-172600000D03*
X464700000Y-171800000D03*
X464700000Y-171000000D03*
X464700000Y-170200000D03*
D14*
X466850000Y-168050000D03*
X467650000Y-168050000D03*
X468450000Y-168050000D03*
X469250000Y-168050000D03*
X470050000Y-168050000D03*
X470850000Y-168050000D03*
X471650000Y-168050000D03*
X472450000Y-168050000D03*
X473250000Y-168050000D03*
X474050000Y-168050000D03*
X474850000Y-168050000D03*
D11*
X477000000Y-170200000D03*
X477000000Y-171000000D03*
X477000000Y-171800000D03*
X477000000Y-172600000D03*
X477000000Y-173400000D03*
X477000000Y-174200000D03*
X477000000Y-175000000D03*
X477000000Y-175800000D03*
X477000000Y-176600000D03*
X477000000Y-177400000D03*
X477000000Y-178200000D03*
D14*
X474850000Y-180350000D03*
X474050000Y-180350000D03*
X473250000Y-180350000D03*
X472450000Y-180350000D03*
X471650000Y-180350000D03*
X470850000Y-180350000D03*
X470050000Y-180350000D03*
X469250000Y-180350000D03*
X468450000Y-180350000D03*
X467650000Y-180350000D03*
X466850000Y-180350000D03*
D15*
X470850000Y-174200000D03*
D16*
X516326000Y-183342000D03*
X509976000Y-185882000D03*
X497326000Y-183342000D03*
X490976000Y-185882000D03*
X478326000Y-183342000D03*
X471976000Y-185882000D03*
X459326000Y-183342000D03*
X452976000Y-185882000D03*
X497326000Y-202342000D03*
X490976000Y-204882000D03*
X478326000Y-202342000D03*
X471976000Y-204882000D03*
X459326000Y-202342000D03*
X452976000Y-204882000D03*
X497326000Y-221342000D03*
X490976000Y-223882000D03*
X478326000Y-221342000D03*
X471976000Y-223882000D03*
X459326000Y-221342000D03*
X452976000Y-223882000D03*
X497326000Y-240342000D03*
X490976000Y-242882000D03*
X478326000Y-240342000D03*
X471976000Y-242882000D03*
X459326000Y-240342000D03*
X452976000Y-242882000D03*
X497326000Y-259342000D03*
X490976000Y-261882000D03*
X430826000Y-164342000D03*
X424476000Y-166882000D03*
X411826000Y-164342000D03*
X405476000Y-166882000D03*
X392826000Y-164342000D03*
X386476000Y-166882000D03*
X392826000Y-202342000D03*
X386476000Y-204882000D03*
X411826000Y-202342000D03*
X405476000Y-204882000D03*
X430826000Y-202342000D03*
X424476000Y-204882000D03*
X430826000Y-183342000D03*
X424476000Y-185882000D03*
X411826000Y-183342000D03*
X405476000Y-185882000D03*
X345326000Y-164342000D03*
X338976000Y-166882000D03*
X326326000Y-164342000D03*
X319976000Y-166882000D03*
X307326000Y-164342000D03*
X300976000Y-166882000D03*
X288326000Y-164342000D03*
X281976000Y-166882000D03*
X269326000Y-164342000D03*
X262976000Y-166882000D03*
X250326000Y-164342000D03*
X243976000Y-166882000D03*
X231326000Y-164342000D03*
X224976000Y-166882000D03*
X212326000Y-164342000D03*
X205976000Y-166882000D03*
X193326000Y-164342000D03*
X186976000Y-166882000D03*
X174326000Y-164342000D03*
X167976000Y-166882000D03*
X155326000Y-164342000D03*
X148976000Y-166882000D03*
X136326000Y-164342000D03*
X129976000Y-166882000D03*
X100701000Y-259342000D03*
X94351000Y-261882000D03*
X361951000Y-259342000D03*
X355601000Y-261882000D03*
X338201000Y-259342000D03*
X331851000Y-261882000D03*
X314451000Y-259342000D03*
X308101000Y-261882000D03*
X290701000Y-259342000D03*
X284351000Y-261882000D03*
X148201000Y-259342000D03*
X141851000Y-261882000D03*
X124451000Y-259342000D03*
X118101000Y-261882000D03*
X312076000Y-240342000D03*
X305726000Y-242882000D03*
X293076000Y-240342000D03*
X286726000Y-242882000D03*
X274076000Y-240342000D03*
X267726000Y-242882000D03*
X255076000Y-240342000D03*
X248726000Y-242882000D03*
X236076000Y-240342000D03*
X229726000Y-242882000D03*
X217076000Y-240342000D03*
X210726000Y-242882000D03*
X198076000Y-240342000D03*
X191726000Y-242882000D03*
X179076000Y-240342000D03*
X172726000Y-242882000D03*
X160076000Y-240342000D03*
X153726000Y-242882000D03*
X141076000Y-240342000D03*
X134726000Y-242882000D03*
X340576000Y-221342000D03*
X334226000Y-223882000D03*
X321576000Y-221342000D03*
X315226000Y-223882000D03*
X302576000Y-221342000D03*
X296226000Y-223882000D03*
X283576000Y-221342000D03*
X277226000Y-223882000D03*
X264576000Y-221342000D03*
X258226000Y-223882000D03*
X245576000Y-221342000D03*
X239226000Y-223882000D03*
X226576000Y-221342000D03*
X220226000Y-223882000D03*
X207576000Y-221342000D03*
X201226000Y-223882000D03*
X188576000Y-221342000D03*
X182226000Y-223882000D03*
X169576000Y-221342000D03*
X163226000Y-223882000D03*
X150576000Y-221342000D03*
X144226000Y-223882000D03*
X131576000Y-221342000D03*
X125226000Y-223882000D03*
X335826000Y-202342000D03*
X329476000Y-204882000D03*
X297826000Y-202342000D03*
X291476000Y-204882000D03*
X316826000Y-202342000D03*
X310476000Y-204882000D03*
X278826000Y-202342000D03*
X272476000Y-204882000D03*
X259826000Y-202342000D03*
X253476000Y-204882000D03*
X240826000Y-202342000D03*
X234476000Y-204882000D03*
X221826000Y-202342000D03*
X215476000Y-204882000D03*
X202826000Y-202342000D03*
X196476000Y-204882000D03*
X183826000Y-202342000D03*
X177476000Y-204882000D03*
X164826000Y-202342000D03*
X158476000Y-204882000D03*
X145826000Y-202342000D03*
X139476000Y-204882000D03*
X126826000Y-202342000D03*
X120476000Y-204882000D03*
X326326000Y-183342000D03*
X319976000Y-185882000D03*
X307326000Y-183342000D03*
X300976000Y-185882000D03*
X288326000Y-183342000D03*
X281976000Y-185882000D03*
X269326000Y-183342000D03*
X262976000Y-185882000D03*
X250326000Y-183342000D03*
X243976000Y-185882000D03*
X212326000Y-183342000D03*
X205976000Y-185882000D03*
X193326000Y-183342000D03*
X186976000Y-185882000D03*
X155326000Y-183342000D03*
X148976000Y-185882000D03*
X117326000Y-183342000D03*
X110976000Y-185882000D03*
X136326000Y-183342000D03*
X129976000Y-185882000D03*
X174326000Y-183342000D03*
X167976000Y-185882000D03*
X98326000Y-183342000D03*
X91976000Y-185882000D03*
X231326000Y-183342000D03*
X224976000Y-185882000D03*
X103076000Y-202342000D03*
X96726000Y-204882000D03*
X105465000Y-221342000D03*
X99115000Y-223882000D03*
X354351000Y-214402000D03*
X356891000Y-220752000D03*
X347701000Y-240342000D03*
X341351000Y-242882000D03*
X219451000Y-259342000D03*
X213101000Y-261882000D03*
X354826000Y-183342000D03*
X348476000Y-185882000D03*
X392826000Y-259342000D03*
X386476000Y-261882000D03*
X411826000Y-259342000D03*
X405476000Y-261882000D03*
X430826000Y-259342000D03*
X424476000Y-261882000D03*
X411826000Y-240342000D03*
X405476000Y-242882000D03*
X117326000Y-164342000D03*
X110976000Y-166882000D03*
X392826000Y-183342000D03*
X386476000Y-185882000D03*
X518866000Y-257462000D03*
X516326000Y-251112000D03*
X463746000Y-269502000D03*
X470096000Y-266962000D03*
X518866000Y-219462000D03*
X516326000Y-213112000D03*
X110216000Y-240342000D03*
X103866000Y-242882000D03*
D17*
X119866000Y-174502000D03*
D18*
X109706000Y-174502000D03*
D19*
X116386000Y-174502000D03*
X113186000Y-174502000D03*
D17*
X138866000Y-174502000D03*
D18*
X128706000Y-174502000D03*
D19*
X135386000Y-174502000D03*
X132186000Y-174502000D03*
D17*
X157866000Y-174502000D03*
D18*
X147706000Y-174502000D03*
D19*
X154386000Y-174502000D03*
X151186000Y-174502000D03*
D17*
X176866000Y-174502000D03*
D18*
X166706000Y-174502000D03*
D19*
X173386000Y-174502000D03*
X170186000Y-174502000D03*
D17*
X195866000Y-174502000D03*
D18*
X185706000Y-174502000D03*
D19*
X192386000Y-174502000D03*
X189186000Y-174502000D03*
D17*
X214866000Y-174502000D03*
D18*
X204706000Y-174502000D03*
D19*
X211386000Y-174502000D03*
X208186000Y-174502000D03*
D17*
X233866000Y-174502000D03*
D18*
X223706000Y-174502000D03*
D19*
X230386000Y-174502000D03*
X227186000Y-174502000D03*
D17*
X252866000Y-174502000D03*
D18*
X242706000Y-174502000D03*
D19*
X249386000Y-174502000D03*
X246186000Y-174502000D03*
D17*
X271866000Y-174502000D03*
D18*
X261706000Y-174502000D03*
D19*
X268386000Y-174502000D03*
X265186000Y-174502000D03*
D17*
X290866000Y-174502000D03*
D18*
X280706000Y-174502000D03*
D19*
X287386000Y-174502000D03*
X284186000Y-174502000D03*
D17*
X309866000Y-174502000D03*
D18*
X299706000Y-174502000D03*
D19*
X306386000Y-174502000D03*
X303186000Y-174502000D03*
D17*
X328866000Y-174502000D03*
D18*
X318706000Y-174502000D03*
D19*
X325386000Y-174502000D03*
X322186000Y-174502000D03*
D17*
X347866000Y-174502000D03*
D18*
X337706000Y-174502000D03*
D19*
X344386000Y-174502000D03*
X341186000Y-174502000D03*
D17*
X357366000Y-193502000D03*
D18*
X347206000Y-193502000D03*
D19*
X353886000Y-193502000D03*
X350686000Y-193502000D03*
D17*
X395366000Y-174502000D03*
D18*
X385206000Y-174502000D03*
D19*
X391886000Y-174502000D03*
X388686000Y-174502000D03*
D17*
X414366000Y-174502000D03*
D18*
X404206000Y-174502000D03*
D19*
X410886000Y-174502000D03*
X407686000Y-174502000D03*
D17*
X433366000Y-174502000D03*
D18*
X423206000Y-174502000D03*
D19*
X429886000Y-174502000D03*
X426686000Y-174502000D03*
D17*
X100866000Y-193502000D03*
D18*
X90706000Y-193502000D03*
D19*
X97386000Y-193502000D03*
X94186000Y-193502000D03*
D17*
X119866000Y-193502000D03*
D18*
X109706000Y-193502000D03*
D19*
X116386000Y-193502000D03*
X113186000Y-193502000D03*
D17*
X138866000Y-193502000D03*
D18*
X128706000Y-193502000D03*
D19*
X135386000Y-193502000D03*
X132186000Y-193502000D03*
D17*
X157866000Y-193502000D03*
D18*
X147706000Y-193502000D03*
D19*
X154386000Y-193502000D03*
X151186000Y-193502000D03*
D17*
X176866000Y-193502000D03*
D18*
X166706000Y-193502000D03*
D19*
X173386000Y-193502000D03*
X170186000Y-193502000D03*
D17*
X195866000Y-193502000D03*
D18*
X185706000Y-193502000D03*
D19*
X192386000Y-193502000D03*
X189186000Y-193502000D03*
D17*
X214866000Y-193502000D03*
D18*
X204706000Y-193502000D03*
D19*
X211386000Y-193502000D03*
X208186000Y-193502000D03*
D17*
X233866000Y-193502000D03*
D18*
X223706000Y-193502000D03*
D19*
X230386000Y-193502000D03*
X227186000Y-193502000D03*
D17*
X252866000Y-193502000D03*
D18*
X242706000Y-193502000D03*
D19*
X249386000Y-193502000D03*
X246186000Y-193502000D03*
D17*
X271866000Y-193502000D03*
D18*
X261706000Y-193502000D03*
D19*
X268386000Y-193502000D03*
X265186000Y-193502000D03*
D17*
X290866000Y-193502000D03*
D18*
X280706000Y-193502000D03*
D19*
X287386000Y-193502000D03*
X284186000Y-193502000D03*
D17*
X309866000Y-193502000D03*
D18*
X299706000Y-193502000D03*
D19*
X306386000Y-193502000D03*
X303186000Y-193502000D03*
D17*
X328866000Y-193502000D03*
D18*
X318706000Y-193502000D03*
D19*
X325386000Y-193502000D03*
X322186000Y-193502000D03*
D17*
X395366000Y-193502000D03*
D18*
X385206000Y-193502000D03*
D19*
X391886000Y-193502000D03*
X388686000Y-193502000D03*
D17*
X414366000Y-193502000D03*
D18*
X404206000Y-193502000D03*
D19*
X410886000Y-193502000D03*
X407686000Y-193502000D03*
D17*
X433366000Y-193502000D03*
D18*
X423206000Y-193502000D03*
D19*
X429886000Y-193502000D03*
X426686000Y-193502000D03*
D17*
X461866000Y-193502000D03*
D18*
X451706000Y-193502000D03*
D19*
X458386000Y-193502000D03*
X455186000Y-193502000D03*
D17*
X480866000Y-193502000D03*
D18*
X470706000Y-193502000D03*
D19*
X477386000Y-193502000D03*
X474186000Y-193502000D03*
D17*
X499866000Y-193502000D03*
D18*
X489706000Y-193502000D03*
D19*
X496386000Y-193502000D03*
X493186000Y-193502000D03*
D17*
X518866000Y-193502000D03*
D18*
X508706000Y-193502000D03*
D19*
X515386000Y-193502000D03*
X512186000Y-193502000D03*
D17*
X105616000Y-212502000D03*
D18*
X95456000Y-212502000D03*
D19*
X102136000Y-212502000D03*
X98936000Y-212502000D03*
D17*
X129366000Y-212502000D03*
D18*
X119206000Y-212502000D03*
D19*
X125886000Y-212502000D03*
X122686000Y-212502000D03*
D17*
X148366000Y-212502000D03*
D18*
X138206000Y-212502000D03*
D19*
X144886000Y-212502000D03*
X141686000Y-212502000D03*
D17*
X167366000Y-212502000D03*
D18*
X157206000Y-212502000D03*
D19*
X163886000Y-212502000D03*
X160686000Y-212502000D03*
D17*
X186366000Y-212502000D03*
D18*
X176206000Y-212502000D03*
D19*
X182886000Y-212502000D03*
X179686000Y-212502000D03*
D17*
X205366000Y-212502000D03*
D18*
X195206000Y-212502000D03*
D19*
X201886000Y-212502000D03*
X198686000Y-212502000D03*
D17*
X224366000Y-212502000D03*
D18*
X214206000Y-212502000D03*
D19*
X220886000Y-212502000D03*
X217686000Y-212502000D03*
D17*
X243366000Y-212502000D03*
D18*
X233206000Y-212502000D03*
D19*
X239886000Y-212502000D03*
X236686000Y-212502000D03*
D17*
X262366000Y-212502000D03*
D18*
X252206000Y-212502000D03*
D19*
X258886000Y-212502000D03*
X255686000Y-212502000D03*
D17*
X281366000Y-212502000D03*
D18*
X271206000Y-212502000D03*
D19*
X277886000Y-212502000D03*
X274686000Y-212502000D03*
D17*
X300366000Y-212502000D03*
D18*
X290206000Y-212502000D03*
D19*
X296886000Y-212502000D03*
X293686000Y-212502000D03*
D17*
X319366000Y-212502000D03*
D18*
X309206000Y-212502000D03*
D19*
X315886000Y-212502000D03*
X312686000Y-212502000D03*
D17*
X338366000Y-212502000D03*
D18*
X328206000Y-212502000D03*
D19*
X334886000Y-212502000D03*
X331686000Y-212502000D03*
D17*
X395366000Y-212502000D03*
D18*
X385206000Y-212502000D03*
D19*
X391886000Y-212502000D03*
X388686000Y-212502000D03*
D17*
X414366000Y-212502000D03*
D18*
X404206000Y-212502000D03*
D19*
X410886000Y-212502000D03*
X407686000Y-212502000D03*
D17*
X433366000Y-212502000D03*
D18*
X423206000Y-212502000D03*
D19*
X429886000Y-212502000D03*
X426686000Y-212502000D03*
D17*
X461866000Y-212502000D03*
D18*
X451706000Y-212502000D03*
D19*
X458386000Y-212502000D03*
X455186000Y-212502000D03*
D17*
X480866000Y-212502000D03*
D18*
X470706000Y-212502000D03*
D19*
X477386000Y-212502000D03*
X474186000Y-212502000D03*
D17*
X499866000Y-212502000D03*
D18*
X489706000Y-212502000D03*
D19*
X496386000Y-212502000D03*
X493186000Y-212502000D03*
D17*
X508706000Y-221996000D03*
D18*
X508706000Y-211836000D03*
D20*
X508706000Y-218516000D03*
X508706000Y-215316000D03*
D17*
X108005000Y-231502000D03*
D18*
X97845000Y-231502000D03*
D19*
X104525000Y-231502000D03*
X101325000Y-231502000D03*
D17*
X134116000Y-231502000D03*
D18*
X123956000Y-231502000D03*
D19*
X130636000Y-231502000D03*
X127436000Y-231502000D03*
D17*
X153116000Y-231502000D03*
D18*
X142956000Y-231502000D03*
D19*
X149636000Y-231502000D03*
X146436000Y-231502000D03*
D17*
X172116000Y-231502000D03*
D18*
X161956000Y-231502000D03*
D19*
X168636000Y-231502000D03*
X165436000Y-231502000D03*
D17*
X191116000Y-231502000D03*
D18*
X180956000Y-231502000D03*
D19*
X187636000Y-231502000D03*
X184436000Y-231502000D03*
D17*
X210116000Y-231502000D03*
D18*
X199956000Y-231502000D03*
D19*
X206636000Y-231502000D03*
X203436000Y-231502000D03*
D17*
X229116000Y-231502000D03*
D18*
X218956000Y-231502000D03*
D19*
X225636000Y-231502000D03*
X222436000Y-231502000D03*
D17*
X248116000Y-231502000D03*
D18*
X237956000Y-231502000D03*
D19*
X244636000Y-231502000D03*
X241436000Y-231502000D03*
D17*
X267116000Y-231502000D03*
D18*
X256956000Y-231502000D03*
D19*
X263636000Y-231502000D03*
X260436000Y-231502000D03*
D17*
X286116000Y-231502000D03*
D18*
X275956000Y-231502000D03*
D19*
X282636000Y-231502000D03*
X279436000Y-231502000D03*
D17*
X305116000Y-231502000D03*
D18*
X294956000Y-231502000D03*
D19*
X301636000Y-231502000D03*
X298436000Y-231502000D03*
D17*
X324116000Y-231502000D03*
D18*
X313956000Y-231502000D03*
D19*
X320636000Y-231502000D03*
X317436000Y-231502000D03*
D17*
X343116000Y-231502000D03*
D18*
X332956000Y-231502000D03*
D19*
X339636000Y-231502000D03*
X336436000Y-231502000D03*
D17*
X364490000Y-211836000D03*
D18*
X364490000Y-221996000D03*
D20*
X364490000Y-215316000D03*
X364490000Y-218516000D03*
D17*
X461866000Y-231502000D03*
D18*
X451706000Y-231502000D03*
D19*
X458386000Y-231502000D03*
X455186000Y-231502000D03*
D17*
X480866000Y-231502000D03*
D18*
X470706000Y-231502000D03*
D19*
X477386000Y-231502000D03*
X474186000Y-231502000D03*
D17*
X499866000Y-231502000D03*
D18*
X489706000Y-231502000D03*
D19*
X496386000Y-231502000D03*
X493186000Y-231502000D03*
D17*
X112756000Y-250502000D03*
D18*
X102596000Y-250502000D03*
D19*
X109276000Y-250502000D03*
X106076000Y-250502000D03*
D17*
X143616000Y-250502000D03*
D18*
X133456000Y-250502000D03*
D19*
X140136000Y-250502000D03*
X136936000Y-250502000D03*
D17*
X162616000Y-250502000D03*
D18*
X152456000Y-250502000D03*
D19*
X159136000Y-250502000D03*
X155936000Y-250502000D03*
D17*
X181616000Y-250502000D03*
D18*
X171456000Y-250502000D03*
D19*
X178136000Y-250502000D03*
X174936000Y-250502000D03*
D17*
X200616000Y-250502000D03*
D18*
X190456000Y-250502000D03*
D19*
X197136000Y-250502000D03*
X193936000Y-250502000D03*
D17*
X219616000Y-250502000D03*
D18*
X209456000Y-250502000D03*
D19*
X216136000Y-250502000D03*
X212936000Y-250502000D03*
D17*
X238616000Y-250502000D03*
D18*
X228456000Y-250502000D03*
D19*
X235136000Y-250502000D03*
X231936000Y-250502000D03*
D17*
X257616000Y-250502000D03*
D18*
X247456000Y-250502000D03*
D19*
X254136000Y-250502000D03*
X250936000Y-250502000D03*
D17*
X276616000Y-250502000D03*
D18*
X266456000Y-250502000D03*
D19*
X273136000Y-250502000D03*
X269936000Y-250502000D03*
D17*
X295616000Y-250502000D03*
D18*
X285456000Y-250502000D03*
D19*
X292136000Y-250502000D03*
X288936000Y-250502000D03*
D17*
X314616000Y-250502000D03*
D18*
X304456000Y-250502000D03*
D19*
X311136000Y-250502000D03*
X307936000Y-250502000D03*
D17*
X350241000Y-250502000D03*
D18*
X340081000Y-250502000D03*
D19*
X346761000Y-250502000D03*
X343561000Y-250502000D03*
D17*
X414366000Y-250502000D03*
D18*
X404206000Y-250502000D03*
D19*
X410886000Y-250502000D03*
X407686000Y-250502000D03*
D17*
X461866000Y-250502000D03*
D18*
X451706000Y-250502000D03*
D19*
X458386000Y-250502000D03*
X455186000Y-250502000D03*
D17*
X480866000Y-250502000D03*
D18*
X470706000Y-250502000D03*
D19*
X477386000Y-250502000D03*
X474186000Y-250502000D03*
D17*
X499866000Y-250502000D03*
D18*
X489706000Y-250502000D03*
D19*
X496386000Y-250502000D03*
X493186000Y-250502000D03*
D17*
X508706000Y-260002000D03*
D18*
X508706000Y-249842000D03*
D20*
X508706000Y-256522000D03*
X508706000Y-253322000D03*
D17*
X103241000Y-269502000D03*
D18*
X93081000Y-269502000D03*
D19*
X99761000Y-269502000D03*
X96561000Y-269502000D03*
D17*
X126991000Y-269502000D03*
D18*
X116831000Y-269502000D03*
D19*
X123511000Y-269502000D03*
X120311000Y-269502000D03*
D17*
X150741000Y-269502000D03*
D18*
X140581000Y-269502000D03*
D19*
X147261000Y-269502000D03*
X144061000Y-269502000D03*
D17*
X221991000Y-269502000D03*
D18*
X211831000Y-269502000D03*
D19*
X218511000Y-269502000D03*
X215311000Y-269502000D03*
D17*
X293241000Y-269502000D03*
D18*
X283081000Y-269502000D03*
D19*
X289761000Y-269502000D03*
X286561000Y-269502000D03*
D17*
X316991000Y-269502000D03*
D18*
X306831000Y-269502000D03*
D19*
X313511000Y-269502000D03*
X310311000Y-269502000D03*
D17*
X340741000Y-269502000D03*
D18*
X330581000Y-269502000D03*
D19*
X337261000Y-269502000D03*
X334061000Y-269502000D03*
D17*
X364491000Y-269502000D03*
D18*
X354331000Y-269502000D03*
D19*
X361011000Y-269502000D03*
X357811000Y-269502000D03*
D17*
X395366000Y-269502000D03*
D18*
X385206000Y-269502000D03*
D19*
X391886000Y-269502000D03*
X388686000Y-269502000D03*
D17*
X414366000Y-269502000D03*
D18*
X404206000Y-269502000D03*
D19*
X410886000Y-269502000D03*
X407686000Y-269502000D03*
D17*
X433366000Y-269502000D03*
D18*
X423206000Y-269502000D03*
D19*
X429886000Y-269502000D03*
X426686000Y-269502000D03*
D17*
X461206000Y-259342000D03*
D18*
X471366000Y-259342000D03*
D19*
X464686000Y-259342000D03*
X467886000Y-259342000D03*
D17*
X499866000Y-269502000D03*
D18*
X489706000Y-269502000D03*
D19*
X496386000Y-269502000D03*
X493186000Y-269502000D03*
D21*
X440950000Y-171300000D03*
X438450000Y-171300000D03*
D22*
X440878000Y-179832000D03*
X438978000Y-179832000D03*
X460500000Y-170100000D03*
X458600000Y-170100000D03*
X460500000Y-171700000D03*
X458600000Y-171700000D03*
D23*
X476500000Y-161450000D03*
X476500000Y-163350000D03*
X467500000Y-161450000D03*
X467500000Y-163350000D03*
D22*
X460500000Y-173300000D03*
X458600000Y-173300000D03*
X468000000Y-182900000D03*
X466100000Y-182900000D03*
D23*
X479150000Y-171000000D03*
X479150000Y-169100000D03*
D21*
X440950000Y-173500000D03*
X438450000Y-173500000D03*
D24*
X445050000Y-171200000D03*
X447550000Y-171200000D03*
X445050000Y-176800000D03*
X447550000Y-176800000D03*
D25*
X441499800Y-168649320D03*
X442299900Y-168649320D03*
X443100000Y-168649320D03*
X443900100Y-168649320D03*
X444700200Y-168649320D03*
D26*
X438649920Y-168550260D03*
X438649920Y-163051160D03*
X447550080Y-168550260D03*
X447550080Y-163051160D03*
D27*
X440900360Y-166050900D03*
X445299640Y-166050900D03*
D28*
X453300000Y-162100000D03*
D29*
X450760000Y-162100000D03*
X453300000Y-164640000D03*
X450760000Y-164640000D03*
X453300000Y-167180000D03*
X450760000Y-167180000D03*
D30*
X441028000Y-178054000D03*
X438828000Y-178054000D03*
X445100000Y-173100000D03*
X447300000Y-173100000D03*
X445100000Y-174900000D03*
X447300000Y-174900000D03*
X452200000Y-171450000D03*
X454400000Y-171450000D03*
D31*
X484300000Y-168200000D03*
X484300000Y-170400000D03*
X502300000Y-168200000D03*
X502300000Y-170400000D03*
X520300000Y-168200000D03*
X520300000Y-170400000D03*
D32*
X474050000Y-162700000D03*
X469950000Y-162700000D03*
D33*
X452245000Y-173500000D03*
X454355000Y-173500000D03*
D34*
X437674000Y-175768000D03*
X441674000Y-175768000D03*
D35*
X464575000Y-166350000D03*
X464575000Y-161850000D03*
X456625000Y-161850000D03*
X456625000Y-166350000D03*
D36*
X482000000Y-170000000D03*
D37*
X482000000Y-168000000D03*
X482000000Y-172000000D03*
D36*
X500000000Y-170000000D03*
D37*
X500000000Y-168000000D03*
X500000000Y-172000000D03*
D36*
X518000000Y-170000000D03*
D37*
X518000000Y-168000000D03*
X518000000Y-172000000D03*
M02*
