M48
;DRILL file {KiCad 4.0.4-stable} date Wed Dec 14 22:22:52 2016
;FORMAT={-:-/ absolute / inch / decimal}
FMAT,2
INCH,TZ
T1C0.035
T2C0.067
T3C0.078
T4C0.120
T5C0.157
%
G90
G05
M72
T1
X17.3583Y-6.5374
X17.5315Y-6.5374
T2
X3.5711Y-7.4182
X3.6646Y-10.4103
X3.7581Y-8.1662
X3.8522Y-8.9143
X3.9711Y-7.4182
X4.0392Y-9.6623
X4.0646Y-10.4103
X4.1581Y-8.1662
X4.2522Y-8.9143
X4.3191Y-6.6702
X4.3191Y-7.4182
X4.4392Y-9.6623
X4.5996Y-10.4103
X4.6931Y-8.1662
X4.7191Y-6.6702
X4.7191Y-7.4182
X4.8802Y-8.9143
X4.9996Y-10.4103
X5.0672Y-6.6702
X5.0672Y-7.4182
X5.0931Y-8.1662
X5.2542Y-9.6623
X5.2802Y-8.9143
X5.4412Y-8.1662
X5.4672Y-6.6702
X5.4672Y-7.4182
X5.5347Y-10.4103
X5.6282Y-8.9143
X5.6542Y-9.6623
X5.8152Y-6.6702
X5.8152Y-7.4182
X5.8412Y-8.1662
X5.9347Y-10.4103
X6.0022Y-9.6623
X6.0282Y-8.9143
X6.1892Y-8.1662
X6.2152Y-6.6702
X6.2152Y-7.4182
X6.3762Y-8.9143
X6.4022Y-9.6623
X6.5632Y-6.6702
X6.5632Y-7.4182
X6.5892Y-8.1662
X6.7502Y-9.6623
X6.7762Y-8.9143
X6.9372Y-8.1662
X6.9632Y-6.6702
X6.9632Y-7.4182
X7.1243Y-8.9143
X7.1502Y-9.6623
X7.3113Y-6.6702
X7.3113Y-7.4182
X7.3372Y-8.1662
X7.4983Y-9.6623
X7.5243Y-8.9143
X7.6853Y-8.1662
X7.7113Y-6.6702
X7.7113Y-7.4182
X7.8723Y-8.9143
X7.8983Y-9.6623
X8.0593Y-6.6702
X8.0593Y-7.4182
X8.0853Y-8.1662
X8.2463Y-9.6623
X8.2723Y-8.9143
X8.3398Y-10.4103
X8.4333Y-8.1662
X8.4593Y-6.6702
X8.4593Y-7.4182
X8.6203Y-8.9143
X8.6463Y-9.6623
X8.7398Y-10.4103
X8.8073Y-6.6702
X8.8073Y-7.4182
X8.8333Y-8.1662
X8.9943Y-9.6623
X9.0203Y-8.9143
X9.1813Y-8.1662
X9.2073Y-6.6702
X9.2073Y-7.4182
X9.3683Y-8.9143
X9.3943Y-9.6623
X9.5554Y-6.6702
X9.5554Y-7.4182
X9.5813Y-8.1662
X9.7424Y-9.6623
X9.7683Y-8.9143
X9.9294Y-8.1662
X9.9554Y-6.6702
X9.9554Y-7.4182
X10.1164Y-8.9143
X10.1424Y-9.6623
X10.3034Y-6.6702
X10.3034Y-7.4182
X10.3294Y-8.1662
X10.4904Y-9.6623
X10.5164Y-8.9143
X10.6774Y-8.1662
X10.7034Y-6.6702
X10.7034Y-7.4182
X10.8644Y-8.9143
X10.8904Y-9.6623
X11.0514Y-6.6702
X11.0514Y-7.4182
X11.0774Y-8.1662
X11.1449Y-10.4103
X11.2384Y-9.6623
X11.2644Y-8.9143
X11.4254Y-8.1662
X11.4514Y-6.6702
X11.4514Y-7.4182
X11.5449Y-10.4103
X11.6124Y-8.9143
X11.6384Y-9.6623
X11.7994Y-6.6702
X11.7994Y-7.4182
X11.8254Y-8.1662
X11.9865Y-9.6623
X12.0124Y-8.9143
X12.08Y-10.4103
X12.1735Y-8.1662
X12.1994Y-6.6702
X12.1994Y-7.4182
X12.3605Y-8.9143
X12.3865Y-9.6623
X12.48Y-10.4103
X12.5475Y-6.6702
X12.5475Y-7.4182
X12.5735Y-8.1662
X12.7605Y-8.9143
X12.9215Y-8.1662
X12.9475Y-6.6702
X12.9475Y-7.4182
X13.015Y-10.4103
X13.1085Y-8.9143
X13.2955Y-6.6702
X13.3215Y-8.1662
X13.389Y-9.6623
X13.415Y-10.4103
X13.5085Y-8.9143
X13.6695Y-7.4182
X13.6955Y-6.6702
X13.789Y-9.6623
X13.95Y-10.4103
X14.0695Y-7.4182
X14.1508Y-8.341
X14.1508Y-8.741
X14.35Y-10.4103
X15.1656Y-6.6702
X15.1656Y-7.4182
X15.1656Y-8.1662
X15.1656Y-10.4103
X15.5656Y-6.6702
X15.5656Y-7.4182
X15.5656Y-8.1662
X15.5656Y-10.4103
X15.9136Y-6.6702
X15.9136Y-7.4182
X15.9136Y-8.1662
X15.9136Y-9.6623
X15.9136Y-10.4103
X16.3136Y-6.6702
X16.3136Y-7.4182
X16.3136Y-8.1662
X16.3136Y-9.6623
X16.3136Y-10.4103
X16.6617Y-6.6702
X16.6617Y-7.4182
X16.6617Y-8.1662
X16.6617Y-10.4103
X17.0617Y-6.6702
X17.0617Y-7.4182
X17.0617Y-8.1662
X17.0617Y-10.4103
X17.7837Y-7.4182
X17.7837Y-8.1662
X17.7837Y-8.9143
X17.7837Y-9.6623
X18.1577Y-10.4103
X18.1837Y-7.4182
X18.1837Y-8.1662
X18.1837Y-8.9143
X18.1837Y-9.6623
X18.5317Y-7.4182
X18.5317Y-8.1662
X18.5317Y-8.9143
X18.5317Y-9.6623
X18.5577Y-10.4103
X18.9317Y-7.4182
X18.9317Y-8.1662
X18.9317Y-8.9143
X18.9317Y-9.6623
X19.2798Y-7.4182
X19.2798Y-8.1662
X19.2798Y-8.9143
X19.2798Y-9.6623
X19.2798Y-10.4103
X19.6798Y-7.4182
X19.6798Y-8.1662
X19.6798Y-8.9143
X19.6798Y-9.6623
X19.6798Y-10.4103
X20.0278Y-7.4182
X20.2278Y-8.3402
X20.2278Y-8.7402
X20.2278Y-9.8363
X20.2278Y-10.2363
X20.4278Y-7.4182
T3
X18.9764Y-6.6929
X19.685Y-6.6929
X20.3937Y-6.6929
T4
X3.7692Y-9.3873
X4.7092Y-9.3873
X6.5698Y-10.6853
X10.5098Y-10.6853
X13.119Y-9.3873
X13.3995Y-7.1432
X13.8758Y-8.071
X13.8758Y-9.011
X14.059Y-9.3873
X14.3395Y-7.1432
X17.8877Y-10.6853
X18.8277Y-10.6853
X20.5028Y-8.0702
X20.5028Y-9.0102
X20.5028Y-9.5663
X20.5028Y-10.5063
T5
X3.7692Y-9.9873
X3.7711Y-7.4182
X3.8646Y-10.4103
X3.9581Y-8.1662
X4.0522Y-8.9143
X4.2392Y-9.6623
X4.5191Y-6.6702
X4.5191Y-7.4182
X4.7092Y-9.9873
X4.7996Y-10.4103
X4.8931Y-8.1662
X5.0802Y-8.9143
X5.2672Y-6.6702
X5.2672Y-7.4182
X5.4542Y-9.6623
X5.6412Y-8.1662
X5.7347Y-10.4103
X5.8282Y-8.9143
X6.0152Y-6.6702
X6.0152Y-7.4182
X6.2022Y-9.6623
X6.3892Y-8.1662
X6.5698Y-10.0853
X6.5762Y-8.9143
X6.7632Y-6.6702
X6.7632Y-7.4182
X6.9502Y-9.6623
X7.1372Y-8.1662
X7.3243Y-8.9143
X7.5113Y-6.6702
X7.5113Y-7.4182
X7.6983Y-9.6623
X7.8853Y-8.1662
X8.0723Y-8.9143
X8.2593Y-6.6702
X8.2593Y-7.4182
X8.4463Y-9.6623
X8.5398Y-10.4103
X8.6333Y-8.1662
X8.8203Y-8.9143
X9.0073Y-6.6702
X9.0073Y-7.4182
X9.1943Y-9.6623
X9.3813Y-8.1662
X9.5683Y-8.9143
X9.7554Y-6.6702
X9.7554Y-7.4182
X9.9424Y-9.6623
X10.1294Y-8.1662
X10.3164Y-8.9143
X10.5034Y-6.6702
X10.5034Y-7.4182
X10.5098Y-10.0853
X10.6904Y-9.6623
X10.8774Y-8.1662
X11.0644Y-8.9143
X11.2514Y-6.6702
X11.2514Y-7.4182
X11.3449Y-10.4103
X11.4384Y-9.6623
X11.6254Y-8.1662
X11.8124Y-8.9143
X11.9994Y-6.6702
X11.9994Y-7.4182
X12.1865Y-9.6623
X12.28Y-10.4103
X12.3735Y-8.1662
X12.5605Y-8.9143
X12.7475Y-6.6702
X12.7475Y-7.4182
X13.119Y-9.9873
X13.1215Y-8.1662
X13.215Y-10.4103
X13.3085Y-8.9143
X13.3995Y-7.7432
X13.4955Y-6.6702
X13.589Y-9.6623
X13.8695Y-7.4182
X14.059Y-9.9873
X14.15Y-10.4103
X14.1508Y-8.541
X14.3395Y-7.7432
X14.4758Y-8.071
X14.4758Y-9.011
X15.3656Y-6.6702
X15.3656Y-7.4182
X15.3656Y-8.1662
X15.3656Y-10.4103
X16.1136Y-6.6702
X16.1136Y-7.4182
X16.1136Y-8.1662
X16.1136Y-9.6623
X16.1136Y-10.4103
X16.8617Y-6.6702
X16.8617Y-7.4182
X16.8617Y-8.1662
X16.8617Y-10.4103
X17.8877Y-10.0853
X17.9837Y-7.4182
X17.9837Y-8.1662
X17.9837Y-8.9143
X17.9837Y-9.6623
X18.3577Y-10.4103
X18.7317Y-7.4182
X18.7317Y-8.1662
X18.7317Y-8.9143
X18.7317Y-9.6623
X18.8277Y-10.0853
X19.4798Y-7.4182
X19.4798Y-8.1662
X19.4798Y-8.9143
X19.4798Y-9.6623
X19.4798Y-10.4103
X19.9028Y-8.0702
X19.9028Y-9.0102
X19.9028Y-9.5663
X19.9028Y-10.5063
X20.2278Y-7.4182
X20.2278Y-8.5402
X20.2278Y-10.0363
T0
M30
